# xmcd
#
# Track frame offsets: 
#        150
#        19682
#        32720
#        50853
#        64195
#        73323
#        87796
#        101505
#        114187
#        123126
#        139205
#        150828
#        159877
#        183388
#        197585
#
# Disc length: 2944 seconds
#
# Revision: 0
# Processed by: cddbd v1.5.2PL0 Copyright (c) Steve Scherf et al.
# Submitted via: ExactAudioCopyFreeDBPlugin 1.0
#
DISCID=bf0b7e0f
DTITLE=Alix Dudel - Darf ich mal durch
DYEAR=2017
DGENRE=Blues
TTITLE0=Der letzte Schrei
TTITLE1=Geben Sie Acht
TTITLE2=Zwei alte Tanten tanzen Tango
TTITLE3=Klagelied der Schönen
TTITLE4=Exhibitionist
TTITLE5=Vielleicht
TTITLE6=Der Butt
TTITLE7=Zärtlich allein
TTITLE8=Kleine Tirade
TTITLE9=Enthüllungen einer Striptease-Tänzerin
TTITLE10=Ein Neandertaler
TTITLE11=Der Himmel
TTITLE12=Zu leise für mich
TTITLE13=Weihnacht
TTITLE14=Der letzte Schrei
EXTD=
EXTT0=
EXTT1=
EXTT2=
EXTT3=
EXTT4=
EXTT5=
EXTT6=
EXTT7=
EXTT8=
EXTT9=
EXTT10=
EXTT11=
EXTT12=
EXTT13=
EXTT14=
PLAYORDER=
